<svg width="25" height="25" viewBox="0 0 25 25" fill="none" xmlns="http://www.w3.org/2000/svg">
<path d="M14.229 13.2784L14.4822 13.5316L14.8035 13.3733C15.9774 12.7948 17.429 12.9872 18.3989 13.9571L24.1167 19.6748C24.6286 20.1868 24.6305 21.0231 24.116 21.5417C24.1158 21.5418 24.1156 21.542 24.1154 21.5422L21.5434 24.1142L21.5422 24.1154C21.0304 24.6308 20.1956 24.6325 19.6773 24.1142L13.9595 18.3964C12.9905 17.4275 12.8012 15.9755 13.3764 14.7998L13.5333 14.479L13.2808 14.2265L8.07572 9.02145L7.92928 8.875H7.72217H4.93994L0.66263 3.17192L3.17436 0.660189L8.87744 4.9375V7.71973V7.92683L9.02389 8.07328L14.229 13.2784ZM24.3068 5.45076L24.3073 5.45282C24.8428 7.60412 24.2707 9.97091 22.5883 11.6533C22.0868 12.1548 21.5168 12.5464 20.9096 12.8465L20.2095 12.1464C19.139 11.0759 17.7129 10.4863 16.1987 10.4863C15.8519 10.4863 15.4999 10.5196 15.1551 10.5832L11.483 6.91114C11.5003 5.27245 12.1109 3.65237 13.3492 2.4141C15.026 0.737298 17.3921 0.164477 19.5439 0.694937C19.5797 0.704264 19.6017 0.727526 19.611 0.760337C19.6158 0.777226 19.6156 0.792878 19.6126 0.805254C19.61 0.816024 19.6045 0.828531 19.5903 0.842736L15.9575 4.47555L15.7756 4.65744L15.8178 4.91118L16.3696 8.22661L16.4282 8.57909L16.7807 8.63775L20.0961 9.18951L20.3499 9.23173L20.5318 9.04984L24.1646 5.41703C24.1793 5.40228 24.1928 5.39614 24.2046 5.39324C24.2179 5.38996 24.2339 5.38987 24.2502 5.39435C24.2666 5.39883 24.2793 5.40677 24.2878 5.41517C24.2952 5.42238 24.3024 5.43265 24.3068 5.45076ZM1.26908 20.0215L1.2692 20.0214L8.35705 12.9289L10.5819 15.1538C10.4158 16.0925 10.5077 17.0391 10.7934 17.9209L4.98092 23.7334C3.95548 24.7588 2.29452 24.7588 1.26908 23.7334C0.24364 22.7079 0.24364 21.047 1.26908 20.0215ZM1.45557 21.875C1.45557 22.7957 2.20677 23.5469 3.12744 23.5469C4.05435 23.5469 4.79932 22.7943 4.79932 21.875C4.79932 20.9494 4.053 20.2031 3.12744 20.2031C2.20189 20.2031 1.45557 20.9494 1.45557 21.875Z" fill="black" stroke="black"/>
</svg>
